.
 
http://www.scenetime.com    -  Hottest private tracker on the net. !!!

Sign up will close shortly !!  Join now 

        Seed back for speed


...................................NFO:.................................................








































          
          
              
              
                    
                    
                    
                    

Necronos.2010.DVDSCR.XviD-SiC

Poster:
[img]http://img842.imageshack.us/img842/8018/posternecronos.jpg[/img]

IMDB Link:
http://www.imdb.com/title/tt1605751/

Description:
Necronos, one of the mightiest minions of the devil himself has come to earth to create an invincible army of the undead under leadership of barbaric demons...  

MediaInfo:
General
Complete name                    : Necronos.2010.DVDSCR.XviD-SiC.avi
Format                           : AVI
Format/Info                      : Audio Video Interleave
File size                        : 1.14 GiB
Duration                         : 2h 7mn
Overall bit rate                 : 1 287 Kbps

Video
ID                               : 0
Format                           : MPEG-4 Visual
Format profile                   : Advanced Simple@L5
Format settings, BVOP            : 1
Format settings, QPel            : No
Format settings, GMC             : No warppoints
Format settings, Matrix          : Default (H.263)
Codec ID                         : XVID
Codec ID/Hint                    : XviD
Duration                         : 2h 7mn
Bit rate                         : 1 088 Kbps
Width                            : 720 pixels
Height                           : 320 pixels
Display aspect ratio             : 2.25:1
Frame rate                       : 25.000 fps
Color space                      : YUV
Chroma subsampling               : 4:2:0
Bit depth                        : 8 bits
Scan type                        : Progressive
Compression mode                 : Lossy
Bits/(Pixel*Frame)               : 0.189
Stream size                      : 989 MiB (84%)
Writing library                  : XviD 1.2.1 (UTC 2008-12-04)

Audio
ID                               : 1
Format                           : AC-3
Format/Info                      : Audio Coding 3
Mode extension                   : CM (complete main)
Codec ID                         : 2000
Duration                         : 2h 7mn
Bit rate mode                    : Constant
Bit rate                         : 192 Kbps
Channel(s)                       : 2 channels
Channel positions                : Front: L R
Sampling rate                    : 48.0 KHz
Bit depth                        : 16 bits
Compression mode                 : Lossy
Stream size                      : 175 MiB (15%)
Alignment                        : Aligned on interleaves
Interleave, duration             : 64 ms (1.60 video frames)
Interleave, preload duration     : 192 ms
Title                            : VTS_01_1 T80 2_0ch 192Kbps DELAY -40ms


Screenshots:
[img]http://img41.imageshack.us/img41/5898/snap1be.png[/img]
[img]http://img27.imageshack.us/img27/5160/snap2ru.png[/img]
[img]http://img190.imageshack.us/img190/2149/snap3lo.png[/img]
[img]http://img560.imageshack.us/img560/312/snap4ch.png[/img]
[img]http://img811.imageshack.us/img811/8163/snap5n.png[/img]

Note :   did our thing, as you see in screen 2 we got some warnings, they come up here and there nothing to serious.

Source : our own

Encoder: thefuzz

Enjoy!

Respects to CaptainHomey, Cyanide, CM8, Rx, THC, ELEKTRI4KA, 
Killerhz, PA, YeFsTe, BoxSlots, MrRep and everyone in the struggle...